<svg xmlns="http://www.w3.org/2000/svg" viewBox="0 0 300 300" fill="none">
  <rect width="300" height="300" rx="64" fill="#0B1F14"/>
  <g transform="translate(8,66) scale(0.4)">
    <defs>
      <linearGradient id="fav" x1="70" y1="400" x2="600" y2="120" gradientUnits="userSpaceOnUse">
        <stop offset="0" stop-color="#FFFFFF"/>
        <stop offset="0.6" stop-color="#DDF0C8"/>
        <stop offset="1" stop-color="#A8D84F"/>
      </linearGradient>
    </defs>
    <path stroke="url(#fav)" stroke-width="44" stroke-linecap="round" stroke-linejoin="round" d="M 66 380 C 88 316, 126 316, 150 380 C 168 428, 196 428, 216 380 C 236 318, 268 318, 292 382 C 310 428, 338 428, 366 386 C 396 342, 430 296, 450 252 C 456 234, 448 220, 433 214 C 409 207, 394 227, 395 254 C 396 284, 420 304, 452 302 C 482 300, 502 282, 501 254 C 500 234, 490 222, 478 216 C 456 204, 442 172, 442 130 C 442 86, 463 52, 497 50 C 535 48, 557 82, 547 118 C 537 156, 511 188, 491 210 C 513 198, 549 180, 585 174 C 623 168, 651 184, 647 208 C 643 230, 608 238, 572 234 C 542 231, 516 230, 502 236"/>
  </g>
</svg>
