<svg xmlns="http://www.w3.org/2000/svg" viewBox="0 0 16 16">
  <path
    d="M 1.509 11.2 C 2.011 9.737 2.88 9.737 3.429 11.2 C 3.84 12.297 4.48 12.297 4.937 11.2 C 5.394 9.783 6.126 9.783 6.674 11.246 C 7.086 12.297 7.726 12.297 8.366 11.337 C 9.051 10.331 9.829 9.28 10.286 8.274 C 10.423 7.863 10.24 7.543 9.897 7.406 C 9.349 7.246 9.006 7.703 9.029 8.32 C 9.051 9.006 9.6 9.463 10.331 9.417 C 11.017 9.371 11.474 8.96 11.451 8.32 C 11.429 7.863 11.2 7.589 10.926 7.451 C 10.423 7.177 10.103 6.446 10.103 5.486 C 10.103 4.48 10.583 3.703 11.36 3.657 C 12.229 3.611 12.731 4.389 12.503 5.211 C 12.274 6.08 11.68 6.811 11.223 7.314 C 11.726 7.04 12.549 6.629 13.371 6.491 C 14.24 6.354 14.88 6.72 14.789 7.269 C 14.697 7.771 13.897 7.954 13.074 7.863 C 12.389 7.794 11.794 7.771 11.474 7.909"
    fill="none"
    stroke="#000"
    stroke-width="1.006"
    stroke-linecap="round"
    stroke-linejoin="round"
  />
</svg>
